<?xml version="1.0" standalone="no"?>
<!DOCTYPE svg PUBLIC "-//W3C//DTD SVG 20010904//EN"
 "http://www.w3.org/TR/2001/REC-SVG-20010904/DTD/svg10.dtd">
<svg version="1.0" xmlns="http://www.w3.org/2000/svg"
 width="1000.000000pt" height="1000.000000pt" viewBox="0 0 1000.000000 1000.000000"
 preserveAspectRatio="xMidYMid meet">
<metadata>
Created by potrace 1.14, written by Peter Selinger 2001-2017
</metadata>
<g transform="translate(0.000000,1000.000000) scale(0.100000,-0.100000)"
fill="#000000" stroke="none">
<path d="M6708 9235 c-1 -1 -42 -6 -90 -10 -48 -3 -98 -8 -110 -10 -13 -2 -48
-6 -78 -10 -30 -4 -62 -8 -70 -10 -8 -1 -33 -6 -55 -9 -75 -12 -130 -23 -130
-26 0 -1 -11 -3 -25 -5 -14 -2 -70 -15 -125 -30 -55 -15 -107 -28 -115 -30 -8
-3 -35 -12 -60 -21 -41 -15 -285 -16 -2948 -16 l-2902 0 0 -799 0 -799 1303
-1 c716 0 1548 -1 1850 -1 301 0 547 -3 547 -6 0 -6 -61 -104 -70 -112 -13
-13 -50 -70 -50 -79 0 -5 -3 -11 -8 -13 -4 -1 -80 -113 -170 -248 -89 -135
-169 -254 -178 -265 -8 -11 -29 -42 -47 -70 -17 -27 -37 -56 -44 -63 -7 -7
-13 -19 -13 -27 0 -7 -7 -15 -15 -19 -8 -3 -15 -10 -15 -16 0 -6 -17 -34 -37
-63 -21 -29 -44 -62 -51 -72 -69 -110 -89 -140 -105 -157 -9 -12 -17 -25 -17
-29 0 -4 -6 -14 -13 -21 -7 -7 -36 -49 -65 -93 -28 -44 -55 -84 -59 -90 -5 -5
-58 -84 -118 -175 -61 -91 -113 -166 -117 -168 -5 -2 -8 -7 -8 -11 0 -7 -322
-494 -347 -526 -4 -5 -30 -44 -58 -85 -27 -41 -53 -79 -57 -85 -5 -5 -23 -32
-41 -60 -17 -27 -36 -55 -42 -61 -5 -7 -28 -42 -50 -78 -22 -36 -43 -66 -47
-66 -5 0 -8 -6 -8 -13 0 -8 -9 -22 -20 -32 -11 -10 -20 -23 -20 -29 0 -6 -10
-23 -23 -38 -18 -22 -105 -152 -152 -226 -5 -9 -18 -25 -28 -36 -9 -11 -17
-25 -17 -32 0 -7 -3 -14 -7 -16 -5 -1 -39 -50 -78 -108 -38 -58 -75 -111 -82
-118 -7 -7 -13 -19 -13 -27 0 -7 -3 -15 -8 -17 -6 -3 -489 -717 -517 -766 -5
-9 -12 -19 -15 -22 -14 -14 -50 -70 -50 -79 0 -5 -3 -11 -7 -13 -11 -4 -193
-277 -193 -288 0 -5 -3 -10 -8 -12 -10 -4 -152 -217 -152 -228 0 -5 -4 -10 -9
-12 -4 -1 -44 -57 -87 -123 -43 -66 -82 -121 -86 -123 -5 -2 -8 -10 -8 -17 0
-7 -3 -15 -7 -17 -9 -3 -79 -107 -101 -148 -7 -13 -17 -27 -21 -30 -8 -5 -63
-86 -83 -122 -10 -18 -13 -154 -13 -606 -1 -321 2 -585 6 -588 9 -5 6916 -4
7084 1 173 6 400 19 400 24 0 1 25 4 55 6 53 3 108 10 160 20 14 3 41 7 60 10
60 8 104 16 143 26 21 6 50 12 65 14 37 6 157 39 210 59 23 8 46 16 50 17 49
11 201 76 319 136 103 52 305 171 348 205 6 4 24 19 41 33 18 14 37 25 43 25
6 0 11 4 11 8 0 5 19 23 43 40 39 28 104 86 187 165 64 61 190 204 190 216 0
6 4 11 8 11 5 0 33 35 62 78 30 42 58 78 62 80 4 2 8 7 8 12 0 4 18 38 41 75
77 127 198 389 214 465 2 8 12 42 23 75 67 204 97 427 96 715 0 202 -7 284
-35 430 -6 30 -12 64 -14 75 -10 53 -19 87 -46 175 -17 52 -33 102 -36 110 -4
8 -7 17 -8 20 -37 110 -221 428 -284 491 -9 9 -25 29 -36 45 -61 87 -237 262
-360 357 -311 241 -645 416 -1090 569 -16 5 -39 14 -50 19 -11 4 -81 27 -155
49 -74 23 -157 48 -185 57 -44 13 -66 19 -110 27 -5 1 -15 5 -21 8 -6 4 -22 9
-36 12 -14 2 -70 16 -124 31 -55 15 -106 29 -114 31 -8 1 -58 15 -110 29 -52
15 -135 37 -185 50 -49 13 -101 27 -115 31 -61 16 -191 54 -255 74 -38 13 -74
23 -80 24 -5 1 -14 4 -20 7 -5 4 -35 14 -65 24 -30 10 -59 20 -65 24 -5 3 -13
6 -17 7 -5 1 -10 3 -13 4 -3 1 -8 3 -12 4 -5 1 -52 23 -107 49 -54 26 -103 47
-107 47 -5 0 -9 5 -9 10 0 6 -7 10 -15 10 -8 0 -15 5 -15 12 0 6 -3 9 -6 5 -6
-5 -93 46 -137 81 -46 38 -135 130 -165 172 -89 126 -109 333 -51 517 41 132
134 259 254 348 22 17 42 32 45 35 26 30 281 152 310 149 3 0 21 7 41 15 20 8
39 12 43 9 3 -4 6 -1 6 6 0 7 4 10 9 7 5 -3 22 -2 37 4 30 9 70 17 139 26 22
3 51 7 65 10 14 2 91 7 172 9 81 3 151 5 155 6 5 1 10 0 13 -1 3 -1 32 -3 65
-5 57 -2 151 -12 191 -19 61 -11 92 -17 114 -22 14 -3 36 -7 49 -10 115 -24
315 -112 434 -192 65 -43 197 -165 197 -181 0 -4 9 -19 21 -32 56 -64 108
-209 124 -349 3 -25 8 -61 11 -80 6 -36 13 -96 20 -165 5 -55 11 -92 17 -102
3 -4 371 -8 819 -8 l813 0 -2 140 c-5 291 -13 436 -29 525 -3 19 -8 46 -10 60
-4 28 -9 55 -30 150 -7 32 -7 34 -29 105 -11 33 -19 62 -20 65 -2 16 -60 157
-68 168 -5 6 -7 12 -3 12 5 0 -77 163 -110 218 -58 93 -140 212 -146 212 -4 0
-8 5 -8 12 0 6 -7 18 -15 27 -8 9 -49 56 -92 106 -102 117 -151 164 -293 285
-14 12 -38 31 -53 43 -16 12 -41 32 -55 43 -29 23 -193 131 -227 150 -11 6
-36 20 -55 31 -67 38 -284 146 -300 148 -3 1 -22 9 -44 18 -21 9 -45 17 -52
17 -8 0 -14 4 -14 8 0 5 -6 9 -12 9 -7 1 -37 10 -65 21 -29 11 -53 18 -53 16
0 -3 -12 2 -27 9 -23 12 -127 42 -212 62 -9 3 -34 9 -56 15 -22 5 -60 12 -85
16 -25 3 -49 8 -53 11 -8 5 -49 12 -112 18 -22 2 -40 5 -40 5 0 3 -39 9 -98
15 -34 3 -75 8 -92 11 -33 5 -611 14 -617 9z"/>
</g>
</svg>
